<?xml version="1.0" encoding="UTF-8" standalone="no"?>
<!-- Created with Inkscape (http://www.inkscape.org/) -->

<svg
   version="1.1"
   id="svg148"
   width="32"
   height="32"
   viewBox="0 0 32 32"
   sodipodi:docname="nostr_32x32.svg"
   inkscape:version="1.2.2 (732a01da63, 2022-12-09, custom)"
   xmlns:inkscape="http://www.inkscape.org/namespaces/inkscape"
   xmlns:sodipodi="http://sodipodi.sourceforge.net/DTD/sodipodi-0.dtd"
   xmlns="http://www.w3.org/2000/svg"
   xmlns:svg="http://www.w3.org/2000/svg">
  <defs
     id="defs152" />
  <sodipodi:namedview
     id="namedview150"
     pagecolor="#505050"
     bordercolor="#eeeeee"
     borderopacity="1"
     inkscape:showpageshadow="0"
     inkscape:pageopacity="0"
     inkscape:pagecheckerboard="0"
     inkscape:deskcolor="#505050"
     showgrid="false"
     inkscape:zoom="11.132689"
     inkscape:cx="50.526876"
     inkscape:cy="14.012787"
     inkscape:window-width="1920"
     inkscape:window-height="941"
     inkscape:window-x="0"
     inkscape:window-y="0"
     inkscape:window-maximized="1"
     inkscape:current-layer="g318" />
  <g
     inkscape:groupmode="layer"
     inkscape:label="Image"
     id="g154">
    <g
       id="g318"
       transform="matrix(0.94916193,0,0,0.68490128,-388.72067,-118.57852)"
       style="fill:#800080">
      <path
         style="fill:#800080;fill-opacity:1;stroke-width:0.50856"
         d="m 474.33133,478.31652 c 0,-1.01538 0.10091,-1.43077 0.22424,-0.92308 0.12333,0.5077 0.12333,1.33846 0,1.84615 -0.12333,0.50769 -0.22424,0.0923 -0.22424,-0.92307 z m 10.91862,-6.32965 c 0.48812,-0.58022 0.99781,-1.05494 1.13265,-1.05494 0.13484,0 -0.15421,0.47472 -0.64232,1.05494 -0.48812,0.58022 -0.99781,1.05494 -1.13265,1.05494 -0.13484,0 0.1542,-0.47472 0.64232,-1.05494 z m -7.10976,-17.67027 c 0.91485,-1.01538 1.77368,-1.84615 1.90852,-1.84615 0.13484,0 -0.50334,0.83077 -1.41819,1.84615 -0.91484,1.01538 -1.77368,1.84615 -1.90852,1.84615 -0.13484,0 0.50335,-0.83077 1.41819,-1.84615 z m 62.76198,-56.90226 c 0,-0.10953 0.38613,-0.52492 0.85807,-0.92308 0.77769,-0.6561 0.79503,-0.63745 0.18513,0.19915 -0.64055,0.87864 -1.0432,1.15806 -1.0432,0.72393 z m 94.57074,-4.41622 c -0.60991,-0.8366 -0.59256,-0.85526 0.18513,-0.19915 0.47194,0.39816 0.85807,0.81354 0.85807,0.92307 0,0.43413 -0.40265,0.15471 -1.0432,-0.72392 z m -8.23432,-2.54944 c 0.0235,-0.61448 0.13971,-0.73946 0.29624,-0.31868 0.14164,0.38076 0.12422,0.83571 -0.0387,1.01098 -0.16293,0.17528 -0.27882,-0.13626 -0.25753,-0.6923 z m -2.58229,-2.68999 c 0.35396,-0.15237 0.77687,-0.13363 0.9398,0.0416 0.16293,0.17527 -0.12667,0.29994 -0.64356,0.27704 -0.5712,-0.0253 -0.68739,-0.1503 -0.29624,-0.31868 z m 15.02678,-2.83959 c -0.17776,-0.30941 -0.21804,-0.67569 -0.0895,-0.81396 0.12852,-0.13827 0.36434,0.11489 0.52404,0.56256 0.33155,0.92947 0.0489,1.09296 -0.43453,0.2514 z m -97.30993,-3.85636 c 0,-0.10953 0.38613,-0.52491 0.85807,-0.92307 0.77769,-0.65611 0.79504,-0.63745 0.18513,0.19915 -0.64055,0.87863 -1.0432,1.15805 -1.0432,0.72392 z m 93.12519,-2.8338 -1.18871,-1.45055 1.34841,1.27876 c 0.74162,0.70331 1.3484,1.35606 1.3484,1.45054 0,0.41368 -0.39707,0.077 -1.5081,-1.27875 z m -91.16388,0.72392 c 0,-0.10953 0.38614,-0.52491 0.85808,-0.92307 0.77769,-0.65611 0.79503,-0.63745 0.18512,0.19915 -0.64055,0.87863 -1.0432,1.15805 -1.0432,0.72392 z m 48.093,-2.04822 c 0.11236,-0.0756 0.75592,-0.60969 1.43012,-1.18681 l 1.22582,-1.04932 -0.93407,1.18681 c -0.51373,0.65274 -1.15729,1.18681 -1.43012,1.18681 -0.27283,0 -0.40412,-0.0619 -0.29175,-0.13749 z m -44.41554,-1.9724 c 0.48812,-0.58021 0.99781,-1.05494 1.13265,-1.05494 0.13484,0 -0.1542,0.47473 -0.64232,1.05494 -0.48812,0.58022 -0.99781,1.05495 -1.13265,1.05495 -0.13484,0 0.1542,-0.47473 0.64232,-1.05495 z m 48.05214,-3.16482 c 0.48811,-0.58022 0.9978,-1.05494 1.13264,-1.05494 0.13484,0 -0.1542,0.47472 -0.64232,1.05494 -0.48811,0.58022 -0.9978,1.05494 -1.13264,1.05494 -0.13484,0 0.1542,-0.47472 0.64232,-1.05494 z m 10.90979,-1.40428 c 0.3371,-0.14632 0.88872,-0.14632 1.22582,0 0.3371,0.14633 0.0613,0.26606 -0.61291,0.26606 -0.6742,0 -0.95001,-0.11973 -0.61291,-0.26606 z m 5.6481,-0.54366 c 0.47708,-0.13374 1.13902,-0.12495 1.47099,0.0196 0.33197,0.14449 -0.0584,0.25391 -0.86741,0.24316 -0.80904,-0.0108 -1.08065,-0.12896 -0.60358,-0.2627 z m 7.6214,-1.04973 c 0.35395,-0.15238 0.77687,-0.13364 0.9398,0.0416 0.16293,0.17528 -0.12667,0.29994 -0.64356,0.27704 -0.5712,-0.0253 -0.68739,-0.1503 -0.29624,-0.31868 z m -135.82083,-8.43954 c 0.35395,-0.15237 0.77687,-0.13363 0.9398,0.0416 0.16293,0.17527 -0.12667,0.29994 -0.64356,0.27704 -0.57121,-0.0253 -0.68739,-0.1503 -0.29624,-0.31868 z m 157.73236,-2.8045 c 0.48812,-0.58022 0.99781,-1.05494 1.13265,-1.05494 0.13484,0 -0.15421,0.47472 -0.64232,1.05494 -0.48812,0.58022 -0.99781,1.05494 -1.13265,1.05494 -0.13484,0 0.1542,-0.47472 0.64232,-1.05494 z m -164.50501,-6.59339 c 0.91484,-1.01538 1.77367,-1.84614 1.90851,-1.84614 0.13484,0 -0.50334,0.83076 -1.41819,1.84614 -0.91484,1.01539 -1.77367,1.84615 -1.90851,1.84615 -0.13484,0 0.50334,-0.83076 1.41819,-1.84615 z m 30.30839,-0.0966 c 0.35395,-0.15237 0.77687,-0.13364 0.9398,0.0416 0.16293,0.17527 -0.12667,0.29994 -0.64356,0.27703 -0.57121,-0.0253 -0.68739,-0.15029 -0.29624,-0.31867 z m 3.40165,-1.06687 c 0.60678,-0.12573 1.59969,-0.12573 2.20648,0 0.60678,0.12572 0.11032,0.22859 -1.10324,0.22859 -1.21356,0 -1.71002,-0.10287 -1.10324,-0.22859 z m -27.94869,-3.66938 c 0.3371,-0.14633 0.88872,-0.14633 1.22582,0 0.3371,0.14632 0.0613,0.26605 -0.61291,0.26605 -0.6742,0 -0.95001,-0.11973 -0.61291,-0.26605 z m 166.38245,-7.34295 c 0.0235,-0.61448 0.13972,-0.73946 0.29624,-0.31868 0.14164,0.38076 0.12423,0.83571 -0.0387,1.01099 -0.16293,0.17527 -0.27882,-0.13627 -0.25753,-0.69231 z m 0.0751,-9.71425 c 0,-1.01539 0.10091,-1.43077 0.22424,-0.92308 0.12333,0.50769 0.12333,1.33846 0,1.84615 -0.12333,0.50769 -0.22424,0.0923 -0.22424,-0.92307 z m -180.79959,-6.85712 c 1.05334,-1.16044 2.02549,-2.10989 2.16033,-2.10989 0.13484,0 -0.61666,0.94945 -1.67,2.10989 -1.05335,1.16043 -2.0255,2.10988 -2.16034,2.10988 -0.13484,0 0.61667,-0.94945 1.67001,-2.10988 z m 3.18713,-2.83651 c 0,-0.10953 0.38613,-0.52491 0.85807,-0.92307 0.77769,-0.65611 0.79504,-0.63745 0.18513,0.19915 -0.64055,0.87863 -1.0432,1.15805 -1.0432,0.72392 z m 27.39582,-5.99863 c -0.60991,-0.8366 -0.59257,-0.85526 0.18512,-0.19915 0.47194,0.39816 0.85808,0.81354 0.85808,0.92307 0,0.43413 -0.40265,0.15471 -1.0432,-0.72392 z m -11.82791,-1.53614 c 0.3371,-0.14633 0.88872,-0.14633 1.22582,0 0.3371,0.14632 0.0613,0.26605 -0.61291,0.26605 -0.6742,0 -0.95001,-0.11973 -0.61291,-0.26605 z m 32.88262,-4.23076 c 0.35395,-0.15237 0.77686,-0.13363 0.93979,0.0416 0.16293,0.17527 -0.12667,0.29994 -0.64355,0.27704 -0.57121,-0.0253 -0.68739,-0.1503 -0.29624,-0.31868 z M 649.66308,297.0337 c 0.35395,-0.15237 0.77686,-0.13364 0.93979,0.0416 0.16293,0.17527 -0.12667,0.29994 -0.64355,0.27703 -0.57121,-0.0253 -0.68739,-0.15029 -0.29624,-0.31867 z m -5.88394,-0.52747 c 0.35395,-0.15237 0.77687,-0.13364 0.9398,0.0416 0.16293,0.17527 -0.12667,0.29994 -0.64356,0.27703 -0.5712,-0.0253 -0.68739,-0.15029 -0.29624,-0.31867 z m 2.94197,0 c 0.35395,-0.15237 0.77686,-0.13364 0.9398,0.0416 0.16293,0.17527 -0.12668,0.29994 -0.64356,0.27703 -0.57121,-0.0253 -0.68739,-0.15029 -0.29624,-0.31867 z m 22.15669,-6.69595 c 0,-0.10953 0.38613,-0.52492 0.85808,-0.92308 0.77768,-0.6561 0.79503,-0.63745 0.18512,0.19915 -0.64055,0.87864 -1.0432,1.15806 -1.0432,0.72393 z m -81.75285,-7.0235 c 0.47708,-0.13374 1.13902,-0.12495 1.47099,0.0196 0.33196,0.14449 -0.0584,0.25391 -0.86741,0.24316 -0.80904,-0.0108 -1.08065,-0.12896 -0.60358,-0.2627 z m 14.21018,0.002 c 0.47194,-0.13267 1.24421,-0.13267 1.71615,0 0.47194,0.13267 0.0858,0.24122 -0.85807,0.24122 -0.94389,0 -1.33002,-0.10855 -0.85808,-0.24122 z m 64.04783,-22.71343 c -0.6099,-0.8366 -0.59256,-0.85526 0.18513,-0.19915 0.81676,0.68907 1.0765,1.12222 0.67294,1.12222 -0.10181,0 -0.48795,-0.41538 -0.85807,-0.92307 z m 10.15006,-7.26405 c -0.51967,-0.42294 -0.8309,-0.89157 -0.69162,-1.0414 0.13928,-0.14983 0.65382,0.20376 1.14343,0.78576 1.04263,1.23935 0.87408,1.33472 -0.45181,0.25564 z m -22.36246,-3.81284 -2.68006,-3.03295 2.81939,2.88307 c 2.6193,2.67846 3.044,3.18284 2.68005,3.18284 -0.0766,0 -1.34535,-1.36483 -2.81938,-3.03296 z m 18.58666,0 c -0.6099,-0.8366 -0.59256,-0.85525 0.18513,-0.19915 0.81676,0.68907 1.07651,1.12223 0.67295,1.12223 -0.10182,0 -0.48795,-0.41539 -0.85808,-0.92308 z m -11.27754,-10.02194 c -0.6099,-0.8366 -0.59256,-0.85526 0.18513,-0.19915 0.81676,0.68907 1.0765,1.12222 0.67294,1.12222 -0.10181,0 -0.48795,-0.41538 -0.85807,-0.92307 z m -1.86005,-4.65932 c 0.0235,-0.61448 0.13971,-0.73947 0.29623,-0.31869 0.14164,0.38077 0.12423,0.83571 -0.0387,1.01099 -0.16293,0.17527 -0.27882,-0.13627 -0.25753,-0.6923 z m -4.0782,-24.8565 c 0.60992,-0.12617 1.49251,-0.12138 1.96131,0.0107 0.4688,0.13202 -0.0303,0.23526 -1.10896,0.2294 -1.07872,-0.006 -1.46228,-0.11387 -0.85235,-0.24004 z"
         id="path322" />
      <path
         style="fill:#800080;fill-opacity:1;stroke-width:0.0645784"
         d="m 413.74327,214.92773 c -0.13192,-0.29236 -0.11706,-0.9978 0.0317,-1.50248 0.068,-0.23087 0.24507,-0.64536 0.39341,-0.92107 l 0.26969,-0.50127 -0.19734,0.0512 c -0.36642,0.0952 -0.43733,0.0809 -0.45873,-0.0923 -0.0353,-0.28503 0.0481,-0.49737 0.33063,-0.84361 0.2857,-0.35004 0.64853,-0.55469 1.15443,-0.6512 0.14217,-0.0272 0.33515,-0.12323 0.42886,-0.21359 0.0937,-0.0904 0.68321,-1.00636 1.30998,-2.03554 0.62679,-1.02918 1.36872,-2.23557 1.64876,-2.68089 0.40821,-0.64913 0.5256,-0.89189 0.59217,-1.22445 0.15738,-0.78635 0.43263,-1.14122 1.17671,-1.51711 0.30586,-0.15452 0.74878,-0.50957 1.34142,-1.0753 0.76046,-0.72594 1.73107,-2.02098 1.61339,-2.15269 -0.0246,-0.0276 -0.43848,-0.16247 -0.91957,-0.29969 -1.53545,-0.43791 -2.69268,-0.96327 -3.43338,-1.55869 -0.4185,-0.33641 -0.71052,-0.40386 -1.09722,-0.2534 -0.149,0.058 -0.44175,0.1409 -0.65055,0.1843 -0.65967,0.13708 -1.11563,0.33376 -1.68398,0.72641 -0.56278,0.3888 -0.81498,0.46665 -0.88023,0.27175 -0.0737,-0.21997 -0.0336,-0.77782 0.084,-1.16958 0.14837,-0.49419 0.15044,-0.58762 0.0129,-0.58762 -0.13294,0 -0.40751,0.24883 -0.89639,0.8123 -0.25629,0.2954 -0.42159,0.43208 -0.52258,0.43208 -0.36556,0 -0.42848,-0.53237 -0.17098,-1.44661 0.10094,-0.35836 0.16968,-0.67723 0.15278,-0.70859 -0.0637,-0.1181 -0.31721,-0.0483 -0.80325,0.22106 -0.38991,0.21608 -0.52031,0.26044 -0.58498,0.19893 -0.16674,-0.15857 -0.0691,-0.61613 0.32334,-1.51397 0.42671,-0.97645 1.43715,-1.95472 2.35791,-2.2828 0.70397,-0.25085 1.79227,-0.23651 2.05663,0.027 0.11037,0.11003 0.54197,0.28069 0.58505,0.23133 0.0161,-0.0183 -0.0401,-0.15023 -0.12469,-0.29306 -0.0845,-0.14285 -0.15379,-0.31137 -0.15379,-0.37451 0,-0.25357 0.11681,-0.28069 1.20794,-0.28069 1.17582,0 1.93496,-0.11383 2.60579,-0.39067 0.22295,-0.0921 1.04519,-0.52461 1.82722,-0.96132 2.93344,-1.63814 3.8104,-1.92781 5.82088,-1.92277 1.84282,0.005 2.53819,0.22739 4.10862,1.31625 0.45887,0.31816 0.91095,0.59603 1.00462,0.61751 0.0936,0.0214 0.37275,-0.007 0.6202,-0.0659 0.31967,-0.0746 0.52849,-0.0871 0.72137,-0.0433 0.1493,0.0339 0.5022,0.0616 0.78422,0.0619 0.58713,2.6e-4 0.94131,-0.13938 1.47279,-0.58067 0.5781,-0.47999 0.81958,-1.09872 0.81958,-2.10001 0,-1.15234 -0.23595,-1.61131 -1.35909,-2.64368 -1.59469,-1.46582 -2.13835,-2.43074 -2.13835,-3.79519 0,-0.89875 0.26295,-1.71145 0.67843,-2.09681 0.18083,-0.16772 0.29886,-0.21639 0.5815,-0.23983 0.46053,-0.0383 0.68086,0.0514 1.31911,0.53587 0.43298,0.32871 0.68672,0.45841 1.43117,0.73158 0.49768,0.18261 0.92424,0.36567 0.94792,0.40678 0.0624,0.10845 -0.11438,0.16808 -0.51412,0.17362 -0.42574,0.006 -0.40284,0.0935 0.065,0.24883 0.37382,0.12408 0.51426,0.22037 0.46218,0.31692 -0.0182,0.0337 -0.49329,0.0614 -1.05579,0.0614 -1.01326,0 -1.58114,0.0971 -1.97281,0.33732 -0.17192,0.10539 -0.21279,0.37765 -0.10229,0.68085 0.12635,0.34652 0.2577,0.49948 0.93786,1.09227 0.77643,0.67669 1.33844,1.28978 1.60642,1.75244 0.62406,1.07743 0.78493,2.68247 0.40174,4.00809 -0.13127,0.45414 -0.51616,1.31701 -0.81395,1.82476 -0.50922,0.86825 -1.41216,1.74295 -2.68861,2.60446 -0.23873,0.16113 -0.46681,0.3382 -0.50684,0.39347 -0.0476,0.0658 -0.0779,0.44044 -0.0874,1.0832 -0.0235,1.57787 -0.24178,2.26183 -0.98755,3.09381 -0.35482,0.39582 -0.5993,0.59823 -0.97805,0.80972 -0.56908,0.31777 -1.12318,0.54377 -1.58202,0.64525 -0.49863,0.11028 -1.95708,0.26784 -2.49287,0.26932 -0.4604,0.001 -0.50164,0.0135 -0.61834,0.18352 -0.0688,0.10025 -0.12502,0.21949 -0.12502,0.2651 0,0.11872 -0.31577,0.42478 -0.71425,0.69242 -0.18861,0.12668 -0.38594,0.28761 -0.43851,0.35761 -0.16628,0.22148 -0.55604,0.99193 -0.52169,1.03129 0.0181,0.0208 1.21572,-0.38627 2.66138,-0.9045 2.60878,-0.93521 3.07616,-1.06457 3.50958,-0.97139 0.24488,0.0527 0.76563,0.5927 0.93277,0.96735 0.0497,0.1115 0.31326,0.58824 0.58551,1.05932 0.27227,0.47107 0.51204,0.91792 0.53283,0.993 0.0422,0.15226 -0.0628,0.33726 -0.19134,0.33726 -0.21637,0 -0.66352,-0.33727 -1.07244,-0.80894 -0.51858,-0.59815 -0.61061,-0.60503 -0.55989,-0.0418 0.0269,0.29928 0.0149,0.38296 -0.0597,0.41583 -0.28057,0.12338 -0.62234,-0.33004 -0.62234,-0.82565 0,-0.37164 -0.17428,-0.55629 -0.46983,-0.49782 -0.32711,0.0647 -0.79408,0.21335 -1.6114,0.51283 -1.25805,0.46099 -2.64123,0.95481 -3.01627,1.07688 -0.19907,0.0648 -0.53841,0.23942 -0.75407,0.38805 -0.21567,0.14864 -0.45337,0.28795 -0.52824,0.30957 -0.25439,0.0735 -0.54144,-0.0402 -0.73311,-0.29039 -0.22156,-0.28919 -0.27121,-0.48539 -0.23188,-0.91633 0.0339,-0.37147 0.54628,-1.91459 0.70461,-2.12204 0.11602,-0.15202 0.27689,-0.5749 0.23637,-0.62134 -0.0703,-0.0806 -1.62182,0.62422 -1.87866,0.85335 -0.13946,0.12443 -0.68791,0.59592 -1.21878,1.04779 -0.53086,0.45185 -1.03333,0.88156 -1.1166,0.9549 -0.0877,0.0773 -0.18191,0.26403 -0.22394,0.4441 -0.11529,0.49398 -0.40927,0.87238 -0.90075,1.15939 -0.39393,0.23003 -0.48217,0.3253 -1.02843,1.11023 -1.36594,1.96275 -2.73885,4.11356 -3.40056,5.3273 -0.18828,0.34535 -0.59072,0.90621 -1.0001,1.39378 -0.59311,0.70639 -0.72225,0.90355 -0.96231,1.46904 -0.30498,0.71847 -0.43111,0.81359 -0.59554,0.4492 z"
         id="path320" />
    </g>
    <path
       style="fill:#000000;stroke-width:0.50856"
       id="path316"
       d="" />
  </g>
</svg>
