<?xml version="1.0" encoding="UTF-8" standalone="no"?>
<!-- Created with Inkscape (http://www.inkscape.org/) -->

<svg
   version="1.1"
   id="svg148"
   width="320"
   height="240"
   viewBox="0 0 320 240"
   sodipodi:docname="nostr_320x240.svg"
   inkscape:version="1.2.2 (732a01da63, 2022-12-09, custom)"
   xmlns:inkscape="http://www.inkscape.org/namespaces/inkscape"
   xmlns:sodipodi="http://sodipodi.sourceforge.net/DTD/sodipodi-0.dtd"
   xmlns="http://www.w3.org/2000/svg"
   xmlns:svg="http://www.w3.org/2000/svg">
  <defs
     id="defs152" />
  <sodipodi:namedview
     id="namedview150"
     pagecolor="#505050"
     bordercolor="#eeeeee"
     borderopacity="1"
     inkscape:showpageshadow="0"
     inkscape:pageopacity="0"
     inkscape:pagecheckerboard="0"
     inkscape:deskcolor="#505050"
     showgrid="false"
     inkscape:zoom="0.984"
     inkscape:cx="561.99187"
     inkscape:cy="-31.504065"
     inkscape:window-width="1920"
     inkscape:window-height="941"
     inkscape:window-x="0"
     inkscape:window-y="0"
     inkscape:window-maximized="1"
     inkscape:current-layer="g318" />
  <g
     inkscape:groupmode="layer"
     inkscape:label="Image"
     id="g154">
    <g
       id="g318"
       transform="matrix(0.94916193,0,0,0.68490128,-388.72067,-118.57852)"
       style="fill:#800080">
      <path
         style="fill:#800080;fill-opacity:1;stroke-width:0.50856"
         d="m 474.33133,478.31652 c 0,-1.01538 0.10091,-1.43077 0.22424,-0.92308 0.12333,0.5077 0.12333,1.33846 0,1.84615 -0.12333,0.50769 -0.22424,0.0923 -0.22424,-0.92307 z m 10.91862,-6.32965 c 0.48812,-0.58022 0.99781,-1.05494 1.13265,-1.05494 0.13484,0 -0.15421,0.47472 -0.64232,1.05494 -0.48812,0.58022 -0.99781,1.05494 -1.13265,1.05494 -0.13484,0 0.1542,-0.47472 0.64232,-1.05494 z m -7.10976,-17.67027 c 0.91485,-1.01538 1.77368,-1.84615 1.90852,-1.84615 0.13484,0 -0.50334,0.83077 -1.41819,1.84615 -0.91484,1.01538 -1.77368,1.84615 -1.90852,1.84615 -0.13484,0 0.50335,-0.83077 1.41819,-1.84615 z m 62.76198,-56.90226 c 0,-0.10953 0.38613,-0.52492 0.85807,-0.92308 0.77769,-0.6561 0.79503,-0.63745 0.18513,0.19915 -0.64055,0.87864 -1.0432,1.15806 -1.0432,0.72393 z m 94.57074,-4.41622 c -0.60991,-0.8366 -0.59256,-0.85526 0.18513,-0.19915 0.47194,0.39816 0.85807,0.81354 0.85807,0.92307 0,0.43413 -0.40265,0.15471 -1.0432,-0.72392 z m -8.23432,-2.54944 c 0.0235,-0.61448 0.13971,-0.73946 0.29624,-0.31868 0.14164,0.38076 0.12422,0.83571 -0.0387,1.01098 -0.16293,0.17528 -0.27882,-0.13626 -0.25753,-0.6923 z m -2.58229,-2.68999 c 0.35396,-0.15237 0.77687,-0.13363 0.9398,0.0416 0.16293,0.17527 -0.12667,0.29994 -0.64356,0.27704 -0.5712,-0.0253 -0.68739,-0.1503 -0.29624,-0.31868 z m 15.02678,-2.83959 c -0.17776,-0.30941 -0.21804,-0.67569 -0.0895,-0.81396 0.12852,-0.13827 0.36434,0.11489 0.52404,0.56256 0.33155,0.92947 0.0489,1.09296 -0.43453,0.2514 z m -97.30993,-3.85636 c 0,-0.10953 0.38613,-0.52491 0.85807,-0.92307 0.77769,-0.65611 0.79504,-0.63745 0.18513,0.19915 -0.64055,0.87863 -1.0432,1.15805 -1.0432,0.72392 z m 93.12519,-2.8338 -1.18871,-1.45055 1.34841,1.27876 c 0.74162,0.70331 1.3484,1.35606 1.3484,1.45054 0,0.41368 -0.39707,0.077 -1.5081,-1.27875 z m -91.16388,0.72392 c 0,-0.10953 0.38614,-0.52491 0.85808,-0.92307 0.77769,-0.65611 0.79503,-0.63745 0.18512,0.19915 -0.64055,0.87863 -1.0432,1.15805 -1.0432,0.72392 z m 48.093,-2.04822 c 0.11236,-0.0756 0.75592,-0.60969 1.43012,-1.18681 l 1.22582,-1.04932 -0.93407,1.18681 c -0.51373,0.65274 -1.15729,1.18681 -1.43012,1.18681 -0.27283,0 -0.40412,-0.0619 -0.29175,-0.13749 z m -44.41554,-1.9724 c 0.48812,-0.58021 0.99781,-1.05494 1.13265,-1.05494 0.13484,0 -0.1542,0.47473 -0.64232,1.05494 -0.48812,0.58022 -0.99781,1.05495 -1.13265,1.05495 -0.13484,0 0.1542,-0.47473 0.64232,-1.05495 z m 48.05214,-3.16482 c 0.48811,-0.58022 0.9978,-1.05494 1.13264,-1.05494 0.13484,0 -0.1542,0.47472 -0.64232,1.05494 -0.48811,0.58022 -0.9978,1.05494 -1.13264,1.05494 -0.13484,0 0.1542,-0.47472 0.64232,-1.05494 z m 10.90979,-1.40428 c 0.3371,-0.14632 0.88872,-0.14632 1.22582,0 0.3371,0.14633 0.0613,0.26606 -0.61291,0.26606 -0.6742,0 -0.95001,-0.11973 -0.61291,-0.26606 z m 5.6481,-0.54366 c 0.47708,-0.13374 1.13902,-0.12495 1.47099,0.0196 0.33197,0.14449 -0.0584,0.25391 -0.86741,0.24316 -0.80904,-0.0108 -1.08065,-0.12896 -0.60358,-0.2627 z m 7.6214,-1.04973 c 0.35395,-0.15238 0.77687,-0.13364 0.9398,0.0416 0.16293,0.17528 -0.12667,0.29994 -0.64356,0.27704 -0.5712,-0.0253 -0.68739,-0.1503 -0.29624,-0.31868 z m -135.82083,-8.43954 c 0.35395,-0.15237 0.77687,-0.13363 0.9398,0.0416 0.16293,0.17527 -0.12667,0.29994 -0.64356,0.27704 -0.57121,-0.0253 -0.68739,-0.1503 -0.29624,-0.31868 z m 157.73236,-2.8045 c 0.48812,-0.58022 0.99781,-1.05494 1.13265,-1.05494 0.13484,0 -0.15421,0.47472 -0.64232,1.05494 -0.48812,0.58022 -0.99781,1.05494 -1.13265,1.05494 -0.13484,0 0.1542,-0.47472 0.64232,-1.05494 z m -164.50501,-6.59339 c 0.91484,-1.01538 1.77367,-1.84614 1.90851,-1.84614 0.13484,0 -0.50334,0.83076 -1.41819,1.84614 -0.91484,1.01539 -1.77367,1.84615 -1.90851,1.84615 -0.13484,0 0.50334,-0.83076 1.41819,-1.84615 z m 30.30839,-0.0966 c 0.35395,-0.15237 0.77687,-0.13364 0.9398,0.0416 0.16293,0.17527 -0.12667,0.29994 -0.64356,0.27703 -0.57121,-0.0253 -0.68739,-0.15029 -0.29624,-0.31867 z m 3.40165,-1.06687 c 0.60678,-0.12573 1.59969,-0.12573 2.20648,0 0.60678,0.12572 0.11032,0.22859 -1.10324,0.22859 -1.21356,0 -1.71002,-0.10287 -1.10324,-0.22859 z m -27.94869,-3.66938 c 0.3371,-0.14633 0.88872,-0.14633 1.22582,0 0.3371,0.14632 0.0613,0.26605 -0.61291,0.26605 -0.6742,0 -0.95001,-0.11973 -0.61291,-0.26605 z m 166.38245,-7.34295 c 0.0235,-0.61448 0.13972,-0.73946 0.29624,-0.31868 0.14164,0.38076 0.12423,0.83571 -0.0387,1.01099 -0.16293,0.17527 -0.27882,-0.13627 -0.25753,-0.69231 z m 0.0751,-9.71425 c 0,-1.01539 0.10091,-1.43077 0.22424,-0.92308 0.12333,0.50769 0.12333,1.33846 0,1.84615 -0.12333,0.50769 -0.22424,0.0923 -0.22424,-0.92307 z m -180.79959,-6.85712 c 1.05334,-1.16044 2.02549,-2.10989 2.16033,-2.10989 0.13484,0 -0.61666,0.94945 -1.67,2.10989 -1.05335,1.16043 -2.0255,2.10988 -2.16034,2.10988 -0.13484,0 0.61667,-0.94945 1.67001,-2.10988 z m 3.18713,-2.83651 c 0,-0.10953 0.38613,-0.52491 0.85807,-0.92307 0.77769,-0.65611 0.79504,-0.63745 0.18513,0.19915 -0.64055,0.87863 -1.0432,1.15805 -1.0432,0.72392 z m 27.39582,-5.99863 c -0.60991,-0.8366 -0.59257,-0.85526 0.18512,-0.19915 0.47194,0.39816 0.85808,0.81354 0.85808,0.92307 0,0.43413 -0.40265,0.15471 -1.0432,-0.72392 z m -11.82791,-1.53614 c 0.3371,-0.14633 0.88872,-0.14633 1.22582,0 0.3371,0.14632 0.0613,0.26605 -0.61291,0.26605 -0.6742,0 -0.95001,-0.11973 -0.61291,-0.26605 z m 32.88262,-4.23076 c 0.35395,-0.15237 0.77686,-0.13363 0.93979,0.0416 0.16293,0.17527 -0.12667,0.29994 -0.64355,0.27704 -0.57121,-0.0253 -0.68739,-0.1503 -0.29624,-0.31868 z M 649.66308,297.0337 c 0.35395,-0.15237 0.77686,-0.13364 0.93979,0.0416 0.16293,0.17527 -0.12667,0.29994 -0.64355,0.27703 -0.57121,-0.0253 -0.68739,-0.15029 -0.29624,-0.31867 z m -5.88394,-0.52747 c 0.35395,-0.15237 0.77687,-0.13364 0.9398,0.0416 0.16293,0.17527 -0.12667,0.29994 -0.64356,0.27703 -0.5712,-0.0253 -0.68739,-0.15029 -0.29624,-0.31867 z m 2.94197,0 c 0.35395,-0.15237 0.77686,-0.13364 0.9398,0.0416 0.16293,0.17527 -0.12668,0.29994 -0.64356,0.27703 -0.57121,-0.0253 -0.68739,-0.15029 -0.29624,-0.31867 z m 22.15669,-6.69595 c 0,-0.10953 0.38613,-0.52492 0.85808,-0.92308 0.77768,-0.6561 0.79503,-0.63745 0.18512,0.19915 -0.64055,0.87864 -1.0432,1.15806 -1.0432,0.72393 z m -81.75285,-7.0235 c 0.47708,-0.13374 1.13902,-0.12495 1.47099,0.0196 0.33196,0.14449 -0.0584,0.25391 -0.86741,0.24316 -0.80904,-0.0108 -1.08065,-0.12896 -0.60358,-0.2627 z m 14.21018,0.002 c 0.47194,-0.13267 1.24421,-0.13267 1.71615,0 0.47194,0.13267 0.0858,0.24122 -0.85807,0.24122 -0.94389,0 -1.33002,-0.10855 -0.85808,-0.24122 z m 64.04783,-22.71343 c -0.6099,-0.8366 -0.59256,-0.85526 0.18513,-0.19915 0.81676,0.68907 1.0765,1.12222 0.67294,1.12222 -0.10181,0 -0.48795,-0.41538 -0.85807,-0.92307 z m 10.15006,-7.26405 c -0.51967,-0.42294 -0.8309,-0.89157 -0.69162,-1.0414 0.13928,-0.14983 0.65382,0.20376 1.14343,0.78576 1.04263,1.23935 0.87408,1.33472 -0.45181,0.25564 z m -22.36246,-3.81284 -2.68006,-3.03295 2.81939,2.88307 c 2.6193,2.67846 3.044,3.18284 2.68005,3.18284 -0.0766,0 -1.34535,-1.36483 -2.81938,-3.03296 z m 18.58666,0 c -0.6099,-0.8366 -0.59256,-0.85525 0.18513,-0.19915 0.81676,0.68907 1.07651,1.12223 0.67295,1.12223 -0.10182,0 -0.48795,-0.41539 -0.85808,-0.92308 z m -11.27754,-10.02194 c -0.6099,-0.8366 -0.59256,-0.85526 0.18513,-0.19915 0.81676,0.68907 1.0765,1.12222 0.67294,1.12222 -0.10181,0 -0.48795,-0.41538 -0.85807,-0.92307 z m -1.86005,-4.65932 c 0.0235,-0.61448 0.13971,-0.73947 0.29623,-0.31869 0.14164,0.38077 0.12423,0.83571 -0.0387,1.01099 -0.16293,0.17527 -0.27882,-0.13627 -0.25753,-0.6923 z m -4.0782,-24.8565 c 0.60992,-0.12617 1.49251,-0.12138 1.96131,0.0107 0.4688,0.13202 -0.0303,0.23526 -1.10896,0.2294 -1.07872,-0.006 -1.46228,-0.11387 -0.85235,-0.24004 z"
         id="path322" />
      <path
         style="fill:#800080;fill-opacity:1;stroke-width:0.50856"
         d="m 475.45598,483.61742 c -1.07228,-2.23065 -0.95143,-7.61314 0.25741,-11.46385 0.55302,-1.76164 1.99192,-4.92411 3.19756,-7.02772 l 2.19206,-3.82475 -1.60399,0.39121 c -2.97823,0.72639 -3.55462,0.61755 -3.72852,-0.70411 -0.28615,-2.17473 0.39027,-3.79488 2.68736,-6.43668 2.32226,-2.67075 5.27131,-4.23232 9.38332,-4.96862 1.15551,-0.2069 2.72411,-0.94029 3.48579,-1.62976 0.76169,-0.68946 5.55312,-7.67843 10.64762,-15.53104 5.0945,-7.8526 11.12501,-17.05742 13.40113,-20.45514 3.31791,-4.95289 4.27217,-6.80513 4.81316,-9.3425 1.27924,-5.99987 3.51647,-8.70754 9.56441,-11.57561 2.48606,-1.17895 6.08604,-3.88792 10.90313,-8.20454 6.18102,-5.53886 14.07019,-15.42003 13.11373,-16.42493 -0.20054,-0.2107 -3.56401,-1.23964 -7.47438,-2.28656 -12.48016,-3.34127 -21.88612,-7.34976 -27.90666,-11.89284 -3.40154,-2.56679 -5.77518,-3.0814 -8.91821,-1.93348 -1.21116,0.44235 -3.59066,1.07513 -5.28779,1.4062 -5.36182,1.04593 -9.06781,2.54662 -13.68741,5.54253 -4.57429,2.96652 -6.62413,3.56059 -7.1546,2.07348 -0.59873,-1.67844 -0.27295,-5.93478 0.68303,-8.92386 1.20595,-3.77069 1.22273,-4.4835 0.10557,-4.4835 -1.08046,0 -3.31223,1.89847 -7.28588,6.19778 -2.08317,2.2539 -3.42674,3.2967 -4.24756,3.2967 -2.97128,0 -3.48273,-4.06195 -1.38976,-11.03752 0.82043,-2.73437 1.37923,-5.16733 1.24179,-5.40657 -0.51754,-0.90083 -2.57827,-0.36845 -6.52878,1.68669 -3.16922,1.6487 -4.22919,1.98706 -4.75477,1.51783 -1.35524,-1.20995 -0.56097,-4.70107 2.62812,-11.55156 3.46832,-7.45033 11.68123,-14.9144 19.16519,-17.41774 5.72194,-1.91396 14.56765,-1.80456 16.7164,0.20673 0.89698,0.8396 4.4052,2.14173 4.75538,1.76503 0.13009,-0.13996 -0.32598,-1.14618 -1.01351,-2.23606 -0.68753,-1.08988 -1.25006,-2.37572 -1.25006,-2.85744 0,-1.93466 0.9494,-2.14177 9.81822,-2.14177 9.55717,0 15.72742,-0.86838 21.18007,-2.98081 1.81212,-0.70204 8.49535,-4.00267 14.85164,-7.33473 23.84316,-12.49893 30.97112,-14.70918 47.31237,-14.67073 14.97861,0.0352 20.63061,1.73499 33.39517,10.04298 3.72972,2.42754 7.40422,4.54773 8.16554,4.71153 0.76133,0.1638 3.02981,-0.0624 5.04107,-0.50266 2.59827,-0.56875 4.29556,-0.66448 5.86331,-0.3307 1.21356,0.25837 4.08198,0.47057 6.37426,0.47155 4.7721,0.002 7.65096,-1.06342 11.97088,-4.43042 4.69888,-3.66238 6.66158,-8.38325 6.66158,-16.02303 0,-8.79234 -1.91782,-12.29428 -11.04674,-20.17131 C 648.79194,245.54094 644.373,238.1787 644.373,227.7679 c 0,-6.85746 2.13724,-13.05825 5.51427,-15.99855 1.46977,-1.27969 2.42913,-1.65111 4.72654,-1.82988 3.7432,-0.29127 5.53404,0.39165 10.72174,4.08866 3.5193,2.50802 5.58165,3.49764 11.63261,5.58189 4.04521,1.39337 7.51233,2.79006 7.70471,3.10376 0.50716,0.82697 -0.92962,1.28246 -4.17877,1.32474 -3.4604,0.0451 -3.27434,0.71363 0.52833,1.89849 3.03848,0.94675 4.17987,1.68145 3.75664,2.41812 -0.14778,0.25724 -4.00948,0.46771 -8.58155,0.46771 -8.23575,0 -12.85155,0.74085 -16.03507,2.57367 -1.39729,0.80446 -1.72953,2.88148 -0.831,5.19488 1.02694,2.64397 2.0945,3.81113 7.62293,8.33404 6.31087,5.16305 10.87893,9.84095 13.05709,13.37108 5.07236,8.2207 6.37996,20.46717 3.26533,30.58165 -1.06703,3.46507 -4.19547,10.04876 -6.61583,13.92281 -4.13896,6.62482 -11.47813,13.29865 -21.8532,19.87211 -1.94036,1.22937 -3.79417,2.58034 -4.11959,3.00214 -0.387,0.50162 -0.63274,3.36057 -0.71042,8.26477 -0.19068,12.03917 -1.96522,17.25776 -8.02691,23.60574 -2.88393,3.02012 -4.87101,4.56441 -7.9496,6.17813 -4.62548,2.42457 -9.12924,4.14892 -12.8587,4.92319 -4.05293,0.84141 -15.90723,2.04369 -20.26221,2.05501 -3.74214,0.01 -4.07741,0.10313 -5.02586,1.40023 -0.55893,0.76439 -1.01624,1.67461 -1.01624,2.02269 0,0.90543 -2.56654,3.24104 -5.80547,5.28312 -1.53302,0.96654 -3.13691,2.19443 -3.5642,2.72865 -1.35156,1.68978 -4.51952,7.56838 -4.24038,7.86865 0.14723,0.15839 9.88154,-2.94722 21.6318,-6.90135 21.20447,-7.13562 25.0033,-8.12262 28.52615,-7.41167 1.99039,0.40168 6.22311,4.52232 7.58161,7.38086 0.40452,0.85119 2.5461,4.48835 4.75906,8.08259 2.21297,3.59424 4.16186,7.0037 4.33088,7.57657 0.34277,1.16177 -0.51035,2.57338 -1.55524,2.57338 -1.7587,0 -5.39307,-2.57344 -8.71686,-6.17227 -4.2151,-4.56389 -4.96313,-4.61632 -4.55084,-0.31898 0.21909,2.28357 0.12127,2.92211 -0.48603,3.1728 -2.28051,0.94141 -5.05851,-2.51819 -5.05851,-6.29966 0,-2.83561 -1.41651,-4.24453 -3.81876,-3.7983 -2.65867,0.49386 -6.45426,1.62779 -13.09756,3.91289 -10.22548,3.51727 -21.46804,7.28517 -24.51639,8.21658 -1.61808,0.49439 -4.37618,1.82676 -6.1291,2.96082 -1.75292,1.13406 -3.68504,2.19694 -4.29359,2.36196 -2.06766,0.56068 -4.4008,-0.30687 -5.95876,-2.2157 -1.80082,-2.2064 -2.20438,-3.70343 -1.8847,-6.99158 0.27555,-2.83431 4.44019,-14.60824 5.72707,-16.19112 0.94302,-1.15994 2.25065,-4.38649 1.9213,-4.74079 -0.57124,-0.61451 -13.18233,4.76286 -15.26982,6.51105 -1.1336,0.94935 -5.59145,4.54692 -9.90634,7.99459 -4.31488,3.44768 -8.39901,6.72631 -9.07583,7.28585 -0.71303,0.58948 -1.47853,2.01462 -1.82013,3.38857 -0.93707,3.769 -3.32666,6.65622 -7.3214,8.84606 -3.20184,1.75519 -3.91907,2.48203 -8.35912,8.47107 -11.10242,14.97568 -22.26155,31.38627 -27.63994,40.64719 -1.53033,2.63504 -4.80132,6.9143 -8.12885,10.63451 -4.82078,5.38971 -5.87054,6.89405 -7.82172,11.20876 -2.47897,5.48184 -3.50407,6.20766 -4.84059,3.42734 z"
         id="path320" />
    </g>
    <path
       style="fill:#000000;stroke-width:0.50856"
       id="path316"
       d="" />
  </g>
</svg>
